<?xml version="1.0" encoding="UTF-8" standalone="no"?>
<!-- Created with Inkscape (http://www.inkscape.org/) -->

<svg
   width="1280"
   height="1024"
   id="svg2"
   version="1.1"
   inkscape:version="1.1.2 (0a00cf5339, 2022-02-04)"
   sodipodi:docname="rtr-clockface-bbcmicro.svg"
   xmlns:inkscape="http://www.inkscape.org/namespaces/inkscape"
   xmlns:sodipodi="http://sodipodi.sourceforge.net/DTD/sodipodi-0.dtd"
   xmlns="http://www.w3.org/2000/svg"
   xmlns:svg="http://www.w3.org/2000/svg"
   xmlns:rdf="http://www.w3.org/1999/02/22-rdf-syntax-ns#"
   xmlns:cc="http://creativecommons.org/ns#"
   xmlns:dc="http://purl.org/dc/elements/1.1/">
  <defs
     id="defs4" />
  <sodipodi:namedview
     id="base"
     pagecolor="#ffffff"
     bordercolor="#666666"
     borderopacity="1.0"
     inkscape:pageopacity="0.0"
     inkscape:pageshadow="2"
     inkscape:zoom="0.35"
     inkscape:cx="910"
     inkscape:cy="331.42857"
     inkscape:document-units="px"
     inkscape:current-layer="layer3"
     showgrid="false"
     inkscape:snap-page="true"
     showguides="true"
     inkscape:guide-bbox="true"
     inkscape:window-width="1920"
     inkscape:window-height="1015"
     inkscape:window-x="0"
     inkscape:window-y="0"
     inkscape:window-maximized="1"
     inkscape:pagecheckerboard="0"
     inkscape:snap-object-midpoints="true">
    <sodipodi:guide
       orientation="1,0"
       position="394,360"
       id="guide3603" />
    <sodipodi:guide
       orientation="0,1"
       position="394,360"
       id="guide3605" />
    <sodipodi:guide
       position="639.99977,639.99916"
       orientation="0,1"
       id="guide882" />
    <sodipodi:guide
       position="639.99977,639.99916"
       orientation="1,0"
       id="guide884" />
    <sodipodi:guide
       position="646.39998,676.62228"
       orientation="0,1"
       id="guide886" />
    <sodipodi:guide
       position="646.39998,810.66626"
       orientation="0,1"
       id="guide888" />
  </sodipodi:namedview>
  <metadata
     id="metadata7">
    <rdf:RDF>
      <cc:Work
         rdf:about="">
        <dc:format>image/svg+xml</dc:format>
        <dc:type
           rdf:resource="http://purl.org/dc/dcmitype/StillImage" />
      </cc:Work>
    </rdf:RDF>
  </metadata>
  <g
     inkscape:groupmode="layer"
     id="layer3"
     inkscape:label="clock face"
     style="display:inline"
     transform="translate(0,448)">
    <path
       id="path3082"
       style="display:inline;fill:#000000;fill-opacity:1;fill-rule:nonzero;stroke:none;stroke-width:1"
       d="m 660.97693,-306.0439 c -0.17908,-0.17785 -0.44575,-0.26678 -0.71239,-0.26678 h -13.95608 c -0.26666,0 -0.53333,0.0889 -0.71045,0.26678 -0.17707,0.17785 -0.26667,0.3557 -0.26667,0.62247 v 49.7781 c 0,0.26678 0.0896,0.44463 0.26667,0.62247 0.17707,0.17785 0.44379,0.26678 0.71045,0.26678 h 13.95608 c 0.26664,0 0.53331,-0.0889 0.71239,-0.26678 0.17706,-0.17784 0.26473,-0.35569 0.35425,-0.62247 v -49.7781 c -0.0896,-0.26677 -0.17706,-0.44462 -0.35425,-0.62247"
       inkscape:connector-curvature="0" />
    <path
       id="path3084"
       style="display:inline;fill:#000000;fill-opacity:1;fill-rule:nonzero;stroke:none;stroke-width:1"
       d="m 846.13128,-191.02195 c -0.26667,-0.0889 -0.44379,0 -0.62093,0.0889 l -43.11197,24.88994 c -0.26666,0.0889 -0.35619,0.26498 -0.44378,0.53175 -0.0896,0.26677 0,0.44462 0.0876,0.7114 l 6.13327,10.57845 c 0.0896,0.17785 0.26666,0.3557 0.53333,0.44462 0.2686,0.0889 0.44574,0 0.71239,-0.0889 l 43.11003,-24.88994 c 0.17908,-0.17785 0.26667,-0.35569 0.35622,-0.53354 0.0896,-0.26678 0,-0.44463 -0.0896,-0.70962 l -6.13327,-10.57844 c -0.0876,-0.26677 -0.26666,-0.3557 -0.53333,-0.44462"
       inkscape:connector-curvature="0" />
    <path
       id="path3086"
       style="display:inline;fill:#000000;fill-opacity:1;fill-rule:nonzero;stroke:none;stroke-width:1"
       d="m 766.30921,-270.84406 -10.57702,-6.13223 c -0.26666,-0.0889 -0.44574,-0.17785 -0.71241,-0.0889 -0.26666,0.0889 -0.44378,0.176 -0.53333,0.44285 l -24.88735,43.11232 c -0.0896,0.17785 -0.17905,0.3557 -0.0896,0.62247 0.0896,0.26678 0.17707,0.44462 0.44379,0.53355 l 10.57703,6.13223 c 0.26861,0.0889 0.44573,0.17785 0.71239,0.0889 0.17707,-0.0889 0.35622,-0.17785 0.53334,-0.3557 l 24.88928,-43.11055 c 0.0877,-0.26677 0.17707,-0.44462 0.0877,-0.71139 -0.0877,-0.26677 -0.26472,-0.44462 -0.44379,-0.53355"
       inkscape:connector-curvature="0" />
    <path
       id="path3088"
       style="display:inline;fill:#000000;fill-opacity:1;fill-rule:nonzero;stroke:none;stroke-width:1"
       d="m 661.33289,-63.998272 c 0,-5.956019 -2.04377,-10.933868 -6.22085,-15.111433 -4.17904,-4.177583 -9.24566,-6.222792 -15.11227,-6.222792 -5.95614,0 -10.93323,2.045209 -15.11031,6.222792 -4.17903,4.177565 -6.22281,9.155414 -6.22281,15.111433 0,5.865316 2.04378,10.932108 6.22281,15.109655 4.17708,4.177583 9.15417,6.222792 15.11031,6.222792 5.86661,0 10.93323,-2.045209 15.11227,-6.222792 4.17708,-4.177547 6.22085,-9.244339 6.22085,-15.109655"
       inkscape:connector-curvature="0" />
    <path
       id="path3090"
       style="display:inline;fill:#000000;fill-opacity:1;fill-rule:nonzero;stroke:none;stroke-width:1"
       d="m 882.30999,-84.355359 c 0,-0.266773 -0.0896,-0.533547 -0.26667,-0.711396 -0.17906,-0.266773 -0.3562,-0.355697 -0.62286,-0.355697 h -49.77857 c -0.26473,0 -0.4438,0.08889 -0.62092,0.355697 -0.17707,0.177849 -0.26667,0.444623 -0.26667,0.711396 v 13.955788 c 0,0.266774 0.0896,0.444623 0.26667,0.711396 0.17706,0.177849 0.35619,0.266773 0.62092,0.266773 h 49.77857 c 0.26666,0 0.4438,-0.08889 0.62286,-0.266773 0.17707,-0.266773 0.26667,-0.444622 0.26667,-0.711396 v -13.955788"
       inkscape:connector-curvature="0" />
    <path
       id="path3092"
       style="display:inline;fill:#000000;fill-opacity:1;fill-rule:nonzero;stroke:none;stroke-width:1"
       d="m 881.42046,-42.665825 c 0.26666,-0.08889 0.4438,-0.177849 0.62286,-0.355698 0.17707,-0.177849 0.26667,-0.444622 0.26667,-0.711395 v -13.955789 c 0,-0.266773 -0.0896,-0.533547 -0.26667,-0.711395 -0.17906,-0.177849 -0.3562,-0.266774 -0.62286,-0.266774 h -49.77857 c -0.26667,0 -0.4438,0.08889 -0.62092,0.266774 -0.17707,0.177848 -0.26667,0.444622 -0.26667,0.711395 v 13.955789 c 0,0.266773 0.0896,0.533546 0.26667,0.711395 0.17706,0.177849 0.35425,0.266774 0.62092,0.355698 h 49.77857"
       inkscape:connector-curvature="0" />
    <path
       id="path3094"
       style="display:inline;fill:#000000;fill-opacity:1;fill-rule:nonzero;stroke:none;stroke-width:1"
       d="m 808.35453,25.955357 -6.13327,10.578455 c -0.0896,0.266773 -0.17907,0.444622 -0.0896,0.711395 0.0896,0.177849 0.17707,0.355698 0.44379,0.533547 l 43.11199,24.888163 c 0.17707,0.08889 0.35426,0.177849 0.62286,0.08889 0.26667,-0.08889 0.44379,-0.266773 0.53138,-0.444622 l 6.13522,-10.576677 c 0.0876,-0.266773 0.17706,-0.444622 0.0876,-0.711396 -0.0876,-0.266773 -0.17706,-0.444622 -0.35426,-0.533546 L 809.59831,25.599659 c -0.26666,-0.08889 -0.44378,-0.177849 -0.71045,-0.08889 -0.26667,0.08889 -0.44574,0.177849 -0.53333,0.444623"
       inkscape:connector-curvature="0" />
    <path
       id="path3096"
       style="display:inline;fill:#000000;fill-opacity:1;fill-rule:nonzero;stroke:none;stroke-width:1"
       d="m 729.86383,104.71215 c -0.0876,0.26499 -0.0876,0.44284 0.0896,0.70962 l 24.8893,43.11232 c 0.0896,0.17785 0.26665,0.26678 0.53332,0.3557 0.17707,0.0889 0.35621,0 0.62286,-0.0889 l 10.66656,-6.13401 c 0.17707,-0.0889 0.26667,-0.26677 0.35426,-0.53355 0.0896,-0.26677 0,-0.44462 -0.0876,-0.62247 L 742.0428,98.400326 c -0.0896,-0.266773 -0.26666,-0.355698 -0.53333,-0.444622 -0.26667,-0.08889 -0.44379,0 -0.62286,0.08889 l -10.66656,6.134006 c -0.17707,0.0889 -0.26667,0.26678 -0.3562,0.53355"
       inkscape:connector-curvature="0" />
    <path
       id="path3098"
       style="display:inline;fill:#000000;fill-opacity:1;fill-rule:nonzero;stroke:none;stroke-width:1"
       d="m 660.97693,127.02328 c -0.17908,-0.17785 -0.44575,-0.26677 -0.71239,-0.26677 h -13.95608 c -0.26666,0 -0.53333,0.0889 -0.71045,0.26677 -0.17707,0.17785 -0.26667,0.3557 -0.26667,0.62069 v 49.77811 c 0,0.26677 0.0896,0.44462 0.26667,0.62247 0.17707,0.17785 0.44379,0.26677 0.71045,0.26677 h 13.95608 c 0.26664,0 0.53331,-0.0889 0.71239,-0.26677 0.17706,-0.17785 0.26473,-0.3557 0.35425,-0.62247 v -49.77811 c -0.0896,-0.26499 -0.17706,-0.44284 -0.35425,-0.62069"
       inkscape:connector-curvature="0" />
    <path
       id="path3100"
       style="display:inline;fill:#000000;fill-opacity:1;fill-rule:nonzero;stroke:none;stroke-width:1"
       d="m 619.64206,-306.31068 c -0.0876,0 -0.0876,0 -0.17707,0 -0.17706,0.0889 -0.35619,0.17785 -0.53333,0.26678 -0.0896,0.0889 -0.17908,0.26677 -0.26667,0.3557 0,0.0889 0,0.17784 0,0.26677 v 49.7781 c 0,0.0889 0,0.17785 0,0.26678 0.0876,0.0889 0.17707,0.26677 0.26667,0.35569 v 0 c 0.17707,0.0889 0.35619,0.17785 0.53333,0.26678 0.0896,0 0.0896,0 0.17707,0 h 13.95607 c 0.26667,0 0.53332,-0.0889 0.71046,-0.26678 0.17907,-0.17784 0.26666,-0.35569 0.35619,-0.62247 v -49.7781 c -0.0896,-0.26677 -0.17707,-0.44462 -0.35619,-0.62247 -0.17707,-0.17785 -0.44379,-0.26678 -0.71046,-0.26678 h -13.95607"
       inkscape:connector-curvature="0" />
    <path
       id="path3102"
       style="display:inline;fill:#000000;fill-opacity:1;fill-rule:nonzero;stroke:none;stroke-width:1"
       d="m 537.77622,-254.93193 c -1.06665,-1.86741 -2.13332,-3.6459 -3.11238,-5.4226 l -9.42083,-16.08999 c -0.17908,-0.26677 -0.3562,-0.3557 -0.53334,-0.44462 -0.26664,-0.0889 -0.44572,0 -0.71239,0.0889 l -10.57703,6.13401 c -0.26665,0.0889 -0.35619,0.26677 -0.44379,0.53354 -0.0896,0.26678 0,0.44462 0.0876,0.7114 l 24.88928,43.11055 c 0.0896,0.17784 0.26667,0.26677 0.53333,0.35569 0.26667,0.0889 0.44379,0 0.71241,-0.0889 l 10.57702,-6.13223 c 0.17707,-0.0889 0.35426,-0.26677 0.44379,-0.53354 0.0896,-0.26678 0,-0.44463 -0.0896,-0.62248 -4.17709,-7.20108 -8.26658,-14.40041 -12.35414,-21.59973"
       inkscape:connector-curvature="0" />
    <path
       id="path3104"
       style="display:inline;fill:#000000;fill-opacity:1;fill-rule:nonzero;stroke:none;stroke-width:1"
       d="m 477.86441,-165.15564 c -0.0896,-0.26677 -0.17707,-0.44462 -0.3562,-0.53354 l -43.11003,-24.88815 c -0.26667,-0.17785 -0.44574,-0.17785 -0.71241,-0.0889 -0.26665,0.0889 -0.44379,0.17785 -0.53332,0.3557 l -6.13132,10.66558 c -0.0896,0.17785 -0.17908,0.3557 -0.0896,0.62248 0.0896,0.26677 0.17707,0.44462 0.4438,0.53354 l 43.11197,24.88994 c 0.17707,0.0889 0.35426,0.17785 0.62093,0.0889 0.26665,-0.0889 0.44572,-0.17785 0.53331,-0.3557 l 6.13328,-10.66737 c 0.0896,-0.26678 0.17908,-0.44463 0.0896,-0.62248"
       inkscape:connector-curvature="0" />
    <path
       id="path3106"
       style="display:inline;fill:#000000;fill-opacity:1;fill-rule:nonzero;stroke:none;stroke-width:1"
       d="m 449.24182,-84.266435 c 0,-0.266773 -0.0876,-0.533546 -0.26666,-0.711395 -0.17707,-0.266774 -0.3562,-0.355698 -0.62091,-0.266774 h -49.77858 c -0.26667,-0.08889 -0.44574,0 -0.62286,0.266774 -0.17707,0.177849 -0.26667,0.444622 -0.26667,0.711395 v 14.044713 c 0,0.266774 0.0896,0.444623 0.26667,0.711396 0.17706,0.177849 0.35619,0.266773 0.62286,0.355698 h 49.77858 c 0.26471,-0.08889 0.44379,-0.177849 0.62091,-0.355698 0.17907,-0.266773 0.26666,-0.444622 0.26666,-0.711396 v -14.044713"
       inkscape:connector-curvature="0" />
    <path
       id="path3108"
       style="display:inline;fill:#000000;fill-opacity:1;fill-rule:nonzero;stroke:none;stroke-width:1"
       d="m 449.24182,-43.643994 v -14.044713 c 0,-0.266773 -0.0876,-0.533547 -0.26666,-0.711395 -0.17707,-0.177849 -0.3562,-0.266774 -0.62091,-0.266774 h -49.77858 c -0.26667,0 -0.44574,0.08889 -0.62286,0.266774 -0.17707,0.177848 -0.26667,0.444622 -0.26667,0.711395 v 14.044713 c 0,0.266773 0.0896,0.444622 0.26667,0.711396 0.17706,0.177849 0.35619,0.266773 0.62286,0.266773 h 49.77858 c 0.26471,0 0.44379,-0.08889 0.62091,-0.266773 0.17907,-0.266774 0.26666,-0.444623 0.26666,-0.711396"
       inkscape:connector-curvature="0" />
    <path
       id="path3110"
       style="display:inline;fill:#000000;fill-opacity:1;fill-rule:nonzero;stroke:none;stroke-width:1"
       d="m 433.86485,63.022615 c 0.26666,0.08889 0.4438,0 0.71045,-0.08889 l 43.11199,-24.888163 c 0.17706,-0.08889 0.26666,-0.266773 0.35425,-0.533547 0.0896,-0.266773 0,-0.444622 -0.0876,-0.622471 l -6.13328,-10.667379 c -0.0896,-0.177849 -0.26667,-0.266773 -0.53333,-0.355698 -0.26665,-0.08889 -0.44573,-0.08889 -0.62287,0.08889 l -43.11201,24.889941 c -0.26666,0.08889 -0.35425,0.266773 -0.44378,0.533547 -0.0876,0.177849 0,0.355697 0.0896,0.622471 l 6.13328,10.665601 c 0.0876,0.177849 0.26665,0.266774 0.53331,0.355698"
       inkscape:connector-curvature="0" />
    <path
       id="path3112"
       style="display:inline;fill:#000000;fill-opacity:1;fill-rule:nonzero;stroke:none;stroke-width:1"
       d="m 633.59813,126.75651 h -13.95607 c -0.26667,0 -0.53332,0.0889 -0.71045,0.26677 -0.17908,0.17785 -0.26667,0.3557 -0.26667,0.62069 v 49.77811 c 0,0.26677 0.0876,0.44462 0.26667,0.62247 0.17706,0.17785 0.44378,0.26677 0.71045,0.26677 h 13.95607 c 0.26667,0 0.53332,-0.0889 0.71046,-0.26677 0.17907,-0.17785 0.26666,-0.3557 0.35619,-0.62247 v -49.77811 c -0.0896,-0.26499 -0.17707,-0.44284 -0.35619,-0.62069 -0.17707,-0.17785 -0.44379,-0.26677 -0.71046,-0.26677"
       inkscape:connector-curvature="0" />
    <path
       id="path3114"
       style="display:inline;fill:#000000;fill-opacity:1;fill-rule:nonzero;stroke:none;stroke-width:1"
       d="m 538.84287,98.133517 c -0.26665,0.08889 -0.44573,0.177849 -0.53332,0.444622 l -24.8893,43.110551 c -0.17906,0.17785 -0.17906,0.35569 -0.0896,0.62247 0.0896,0.26677 0.17707,0.44462 0.3562,0.53354 l 10.66656,6.13401 c 0.17706,0.0889 0.35619,0.17785 0.62092,0.0889 0.26861,-0.0889 0.44574,-0.17785 0.53527,-0.35569 l 24.88735,-43.11233 c 0.0896,-0.26677 0.17907,-0.44462 0.0896,-0.7114 -0.0896,-0.26499 -0.17707,-0.44284 -0.3562,-0.53176 l -10.66656,-6.134014 c -0.26471,-0.08889 -0.44379,-0.177849 -0.62092,-0.08889"
       inkscape:connector-curvature="0" />
  </g>
  <g
     inkscape:groupmode="layer"
     id="layer6"
     inkscape:label="hour hand"
     style="display:inline"
     transform="translate(0,448)">
    <path
       id="path3116"
       style="display:inline;fill:#000000;fill-opacity:1;fill-rule:nonzero;stroke:none;stroke-width:1"
       d="m 646.39998,-234.66626 -12.8,-9.4e-4 v 134.04494 l 12.8,-2e-5 z"
       inkscape:connector-curvature="0"
       inkscape:transform-center-x="-0.39143165"
       inkscape:transform-center-y="-103.57231"
       sodipodi:nodetypes="ccccc" />
  </g>
  <g
     inkscape:groupmode="layer"
     id="layer5"
     inkscape:label="minute hand"
     style="display:inline"
     transform="translate(0,448)">
    <path
       id="path3118"
       style="display:inline;fill:#000000;fill-opacity:1;fill-rule:nonzero;stroke:none;stroke-width:1"
       d="m 644.6222,-305.77784 h -9.24444 v 205.15562 l 9.24444,-7.9e-4 z"
       inkscape:connector-curvature="0"
       inkscape:transform-center-x="-0.0012860495"
       inkscape:transform-center-y="-139.15224"
       sodipodi:nodetypes="ccccc" />
  </g>
  <g
     inkscape:groupmode="layer"
     id="layer2"
     inkscape:label="second hand"
     style="display:inline"
     transform="translate(0,448)">
    <path
       id="path3120"
       style="display:inline;fill:#000000;fill-opacity:1;fill-rule:nonzero;stroke:none;stroke-width:1"
       d="m 637.15554,-100.62226 h 5.68889 v -205.15558 h -5.68889 z"
       inkscape:connector-curvature="0"
       inkscape:transform-center-y="-139.12455"
       sodipodi:nodetypes="ccccc"
       inkscape:transform-center-x="6.7284084e-06" />
  </g>
</svg>
