<?xml version="1.0" encoding="UTF-8" standalone="no"?>
<svg
   width="1280"
   height="1024"
   id="svg2"
   version="1.1"
   inkscape:version="1.1.2 (0a00cf5339, 2022-02-04)"
   sodipodi:docname="atv-69-bbcmicro.svg"
   enable-background="new"
   xmlns:inkscape="http://www.inkscape.org/namespaces/inkscape"
   xmlns:sodipodi="http://sodipodi.sourceforge.net/DTD/sodipodi-0.dtd"
   xmlns="http://www.w3.org/2000/svg"
   xmlns:svg="http://www.w3.org/2000/svg"
   xmlns:rdf="http://www.w3.org/1999/02/22-rdf-syntax-ns#"
   xmlns:cc="http://creativecommons.org/ns#"
   xmlns:dc="http://purl.org/dc/elements/1.1/">
  <metadata
     id="metadata106">
    <rdf:RDF>
      <cc:Work
         rdf:about="">
        <dc:format>image/svg+xml</dc:format>
        <dc:type
           rdf:resource="http://purl.org/dc/dcmitype/StillImage" />
      </cc:Work>
    </rdf:RDF>
  </metadata>
  <sodipodi:namedview
     pagecolor="#ffffff"
     bordercolor="#666666"
     borderopacity="1"
     objecttolerance="10"
     gridtolerance="10"
     guidetolerance="10"
     inkscape:pageopacity="0"
     inkscape:pageshadow="2"
     inkscape:window-width="1920"
     inkscape:window-height="1015"
     id="namedview104"
     showgrid="true"
     inkscape:zoom="0.70710678"
     inkscape:cx="593.26259"
     inkscape:cy="519.01638"
     inkscape:window-x="0"
     inkscape:window-y="0"
     inkscape:window-maximized="1"
     inkscape:current-layer="layer2"
     inkscape:pagecheckerboard="0"
     width="1280px"
     showguides="true"
     inkscape:guide-bbox="true"
     inkscape:snap-midpoints="false"
     inkscape:snap-bbox="true"
     inkscape:snap-bbox-edge-midpoints="true">
    <inkscape:grid
       type="xygrid"
       id="grid881"
       dotted="true" />
    <sodipodi:guide
       position="1058,357"
       orientation="0,-1"
       id="guide1602" />
    <sodipodi:guide
       position="640,-94"
       orientation="1,0"
       id="guide1604" />
    <sodipodi:guide
       position="640,808"
       orientation="0,-1"
       id="guide1171" />
    <sodipodi:guide
       position="1058,357"
       orientation="1,0"
       id="guide1173" />
    <sodipodi:guide
       position="1058,855"
       orientation="0,1"
       id="guide922" />
    <sodipodi:guide
       position="640,1306"
       orientation="0,1"
       id="guide924" />
    <sodipodi:guide
       position="988,606"
       orientation="0,1"
       id="guide926"
       inkscape:label=""
       inkscape:locked="false"
       inkscape:color="rgb(0,0,255)" />
    <sodipodi:guide
       position="640,-94"
       orientation="0,1"
       id="guide1030" />
    <sodipodi:guide
       position="991.09375,422"
       orientation="0,1"
       id="guide1032" />
    <sodipodi:guide
       position="1125,137.63878"
       orientation="1,0"
       id="guide1034" />
  </sodipodi:namedview>
  <defs
     id="defs4">
    <marker
       id="ArrowEnd"
       viewBox="0 0 10 10"
       refX="0"
       refY="5"
       markerUnits="strokeWidth"
       markerWidth="4"
       markerHeight="3"
       orient="auto">
      <path
         d="M 0,0 10,5 0,10 Z"
         id="path7"
         inkscape:connector-curvature="0" />
    </marker>
    <marker
       id="ArrowStart"
       viewBox="0 0 10 10"
       refX="10"
       refY="5"
       markerUnits="strokeWidth"
       markerWidth="4"
       markerHeight="3"
       orient="auto">
      <path
         d="M 10,0 0,5 10,10 Z"
         id="path10"
         inkscape:connector-curvature="0" />
    </marker>
    <filter
       inkscape:collect="always"
       style="color-interpolation-filters:sRGB"
       id="filter4620"
       x="0"
       y="0"
       width="1"
       height="1">
      <feBlend
         inkscape:collect="always"
         mode="lighten"
         in2="BackgroundImage"
         id="feBlend4622" />
    </filter>
    <filter
       inkscape:collect="always"
       style="color-interpolation-filters:sRGB"
       id="filter4620-3"
       x="0"
       y="0"
       width="1"
       height="1">
      <feBlend
         inkscape:collect="always"
         mode="lighten"
         in2="BackgroundImage"
         id="feBlend4622-6" />
    </filter>
  </defs>
  <g
     id="g102"
     transform="translate(0,504)" />
  <g
     inkscape:groupmode="layer"
     id="layer2"
     inkscape:label="atv-69"
     style="display:inline;opacity:1;filter:url(#filter4620)">
    <g
       id="g1136">
      <path
         inkscape:connector-curvature="0"
         id="path20-4"
         d="m 916.84375,507.59375 c 26.0625,-25.3125 49.5,-55.3125 70.875,-89.8125 -82.6875,-132.5625 -201.7582,-201 -347.625,-201 -145.86677,0 -265.125,68.4375 -347.8125,201 21.375,34.5 45,64.5 70.875,89.8125 -1.6875,1.5 -3.1875,3 -4.6875,4.6875 v 179.4375 c 3.75,3.75 7.6875,7.5 11.4375,11.0625 v -188.4375 c 3.5625,3.1875 7.125,6.5625 10.6875,9.5625 v 188.625 c 3.75,3.375 7.6875,6.375 11.4375,9.5625 v -188.25 c 3.5625,2.8125 6.9375,5.625 10.6875,8.25 v 188.4375 c 3.75,2.8125 7.5,5.625 11.25,8.25 v -188.4375 c 3.5625,2.4375 7.125,4.875 10.875,7.125 v 188.4375 c 3.75,2.4375 7.5,4.875 11.4375,7.125 v -188.25 c 3.375,2.0625 6.75,3.9375 10.5,6 v 188.4375 c 3.75,2.0625 7.5,4.125 11.4375,6 v -131.8125 c -1.5,-10.125 -2.25,-20.625 -2.25,-31.5 0,-8.625 0.5625,-17.25 1.5,-25.5 54,27.75 114.74767,42.5625 182.625,42.5625 67.6898,0 128.625,-14.8125 182.625,-42.5625 0.9375,8.25 1.5,16.875 1.5,25.5 0,10.875 -0.9375,21.1875 -2.25,31.5 v 131.8125 c 3.75,-1.875 7.5,-3.9375 11.4375,-6 v -188.4375 c 3.5625,-2.0625 7.125,-3.9375 10.5,-6 v 188.25 c 3.9375,-2.25 7.6875,-4.6875 11.4375,-7.125 v -188.4375 c 3.5625,-2.0625 7.125,-4.6875 10.6875,-7.125 v 188.4375 c 3.75,-2.625 7.6875,-5.4375 11.4375,-8.25 v -188.4375 c 3.5625,-2.625 7.125,-5.4375 10.5,-8.25 v 188.25 c 3.9375,-3.1875 7.6875,-6.1875 11.4375,-9.5625 v -188.625 c 3.5625,-3 7.125,-6.375 10.6875,-9.5625 v 188.4375 c 3.9375,-3.5625 7.6875,-7.3125 11.4375,-11.0625 v -179.4375 c -1.5,-1.6875 -3,-3.1875 -4.6875,-4.6875 z m -276.375,-273.75 c 112.0255,0 183.75,89.27145 183.75,184.3125 0,7.125 -0.375,14.25 -1.125,21.1875 -0.375,-0.375 -0.75,-0.5625 -1.125,-0.75 v 9.9375 c -2.25,13.5 -5.625,26.4375 -10.6875,39 v -54 c -3.9375,-1.875 -7.6875,-3.5625 -11.4375,-5.25 v 77.8125 c 0.375,0.75 0.9375,1.5 1.3125,2.4375 -33.3971,56.96189 -89.2966,93.9375 -160.6875,93.9375 -73.40563,0 -127.46575,-38.34419 -161.0625,-94.6875 0.1875,-0.5625 0.5625,-1.125 0.9375,-1.6875 v -77.8125 c -3.75,1.6875 -7.6875,3.375 -11.4375,5.25 v 52.5 c -5.25,-13.3125 -8.8125,-27.375 -10.6875,-42 v -5.4375 c -0.1875,0.1875 -0.375,0.1875 -0.5625,0.375 -0.75,-6.9375 -1.125,-13.6875 -1.125,-20.8125 0,-102.30626 79.912,-184.3125 183.9375,-184.3125 z"
         style="fill:#000000;stroke:none"
         sodipodi:nodetypes="cczccccccccccccccccccccccscscscccccccccccccccccccccssccccccccscccccccccs" />
      <path
         inkscape:connector-curvature="0"
         id="path22-4"
         d="m 711.53125,402.59375 v 22.6875 c 3.9375,1.6875 7.6875,3.5625 11.4375,5.625 v -26.25 c -3.75,-0.75 -7.5,-1.3125 -11.4375,-2.0625 z"
         style="fill:#000000;stroke:none" />
      <path
         inkscape:connector-curvature="0"
         id="path24-4"
         d="m 745.09375,409.71875 c -3.9375,-0.9375 -7.6875,-1.875 -11.4375,-2.625 v 29.8125 c 3.75,2.4375 7.6875,5.0625 11.4375,7.875 z"
         style="fill:#000000;stroke:none" />
      <path
         inkscape:connector-curvature="0"
         id="path26-7"
         d="m 767.03125,416.09375 c -3.75,-1.3125 -7.5,-2.4375 -11.25,-3.5625 v 40.6875 c 3.75,3.1875 7.5,6.75 11.25,10.5 z"
         style="fill:#000000;stroke:none" />
      <path
         inkscape:connector-curvature="0"
         id="path28-6"
         d="m 656.78125,411.78125 v -14.8125 c -3.75,-0.1875 -7.5,-0.1875 -11.4375,-0.375 v 14.4375 c 3.9375,0.1875 7.6875,0.375 11.4375,0.75 z"
         style="fill:#000000;stroke:none" />
      <path
         inkscape:connector-curvature="0"
         id="path30-3"
         d="m 667.46875,397.53125 v 15.375 c 3.75,0.5625 7.6875,1.3125 11.4375,2.0625 v -16.5 c -3.75,-0.375 -7.6875,-0.5625 -11.4375,-0.9375 z"
         style="fill:#000000;stroke:none" />
      <path
         inkscape:connector-curvature="0"
         id="path32-1"
         d="m 689.40625,399.59375 v 18 c 3.9375,0.9375 7.6875,2.25 11.4375,3.5625 v -20.25 c -3.75,-0.375 -7.5,-0.9375 -11.4375,-1.3125 z"
         style="fill:#000000;stroke:none" />
      <path
         inkscape:connector-curvature="0"
         id="path34-7"
         d="m 777.71875,419.65625 v 55.3125 c 4.125,4.6875 7.875,9.5625 11.4375,14.625 v -65.625 c -3.75,-1.5 -7.5,-3 -11.4375,-4.3125 z"
         style="fill:#000000;stroke:none" />
      <path
         inkscape:connector-curvature="0"
         id="path36-5"
         d="m 490.84375,423.96875 v 65.625 c 3.5625,-5.0625 7.3125,-9.9375 11.4375,-14.625 v -55.3125 c -3.75,1.3125 -7.6875,2.8125 -11.4375,4.3125 z"
         style="fill:#000000;stroke:none" />
      <path
         inkscape:connector-curvature="0"
         id="path38-9"
         d="m 579.15625,400.90625 v 20.25 c 3.75,-1.5 7.6875,-2.625 11.4375,-3.5625 v -18 c -3.75,0.375 -7.6875,0.9375 -11.4375,1.3125 z"
         style="fill:#000000;stroke:none" />
      <path
         inkscape:connector-curvature="0"
         id="path40-6"
         d="m 601.28125,398.46875 v 16.3125 c 3.75,-0.75 7.5,-1.3125 11.4375,-1.875 v -15.375 c -3.9375,0.375 -7.6875,0.5625 -11.4375,0.9375 z"
         style="fill:#000000;stroke:none" />
      <path
         inkscape:connector-curvature="0"
         id="path42-2"
         d="m 634.84375,411.03125 v -14.4375 c -3.9375,0.1875 -7.6875,0.1875 -11.4375,0.375 v 14.8125 c 3.75,-0.375 7.5,-0.5625 11.4375,-0.75 z"
         style="fill:#000000;stroke:none" />
      <path
         inkscape:connector-curvature="0"
         id="path44-1"
         d="m 568.46875,425.28125 v -22.6875 c -3.75,0.75 -7.5,1.3125 -11.25,2.0625 v 26.25 c 3.5625,-2.0625 7.5,-3.9375 11.25,-5.625 z"
         style="fill:#000000;stroke:none" />
      <path
         inkscape:connector-curvature="0"
         id="path46-7"
         d="m 546.53125,407.09375 c -3.9375,0.75 -7.6875,1.6875 -11.4375,2.625 v 35.0625 c 3.75,-2.8125 7.5,-5.4375 11.4375,-7.875 z"
         style="fill:#000000;stroke:none" />
      <path
         inkscape:connector-curvature="0"
         id="path48-8"
         d="m 524.40625,412.71875 c -3.75,1.125 -7.5,2.0625 -11.4375,3.375 v 47.625 c 3.75,-3.75 7.6875,-7.3125 11.4375,-10.5 z"
         style="fill:#000000;stroke:none" />
      <path
         inkscape:connector-curvature="0"
         id="path50-5"
         d="m 965.59375,564.03125 c -3.75,-5.0625 -7.5,-10.125 -11.25,-15 v 105.75 c 3.75,-4.875 7.5,-9.9375 11.25,-15 z"
         style="fill:#000000;stroke:none" />
      <path
         inkscape:connector-curvature="0"
         id="path52-7"
         d="m 943.65625,536.09375 c -3.75,-4.125 -7.6875,-8.625 -11.4375,-12.75 v 157.125 c 3.75,-4.125 7.6875,-8.4375 11.4375,-12.75 z"
         style="fill:#000000;stroke:none" />
      <path
         inkscape:connector-curvature="0"
         id="path54-4"
         d="m 976.28125,624.96875 c 5.0625,-7.5 9.9375,-15.1875 14.8125,-23.0625 -4.875,-7.875 -9.75,-15.5625 -14.8125,-22.875 z"
         style="fill:#000000;stroke:none" />
      <path
         inkscape:connector-curvature="0"
         id="path56-1"
         d="m 767.03125,740.09375 c -3.75,3.5625 -7.5,7.125 -11.25,10.5 v 40.6875 c 3.75,-1.125 7.5,-2.25 11.25,-3.5625 z"
         style="fill:#000000;stroke:none" />
      <path
         inkscape:connector-curvature="0"
         id="path58-8"
         d="m 689.40625,786.40625 v 17.8125 c 3.9375,-0.1875 7.6875,-0.9375 11.4375,-1.3125 v -20.25 c -3.75,1.3125 -7.5,2.625 -11.4375,3.75 z"
         style="fill:#000000;stroke:none" />
      <path
         inkscape:connector-curvature="0"
         id="path60-5"
         d="m 678.90625,805.34375 v -16.3125 c -3.75,0.75 -7.6875,1.3125 -11.4375,2.0625 v 15.1875 c 3.75,-0.1875 7.6875,-0.375 11.4375,-0.9375 z"
         style="fill:#000000;stroke:none" />
      <path
         inkscape:connector-curvature="0"
         id="path62-9"
         d="m 656.78125,807.03125 v -14.8125 c -3.75,0.1875 -7.5,0.5625 -11.4375,0.5625 v 14.4375 c 3.9375,0 7.6875,-0.1875 11.4375,-0.1875 z"
         style="fill:#000000;stroke:none" />
      <path
         inkscape:connector-curvature="0"
         id="path64-7"
         d="m 733.65625,766.90625 v 30 c 3.75,-0.9375 7.5,-1.875 11.4375,-2.8125 v -35.0625 c -3.75,2.8125 -7.6875,5.4375 -11.4375,7.875 z"
         style="fill:#000000;stroke:none" />
      <path
         inkscape:connector-curvature="0"
         id="path66-5"
         d="m 711.53125,801.21875 c 3.9375,-0.75 7.6875,-1.3125 11.4375,-2.0625 v -26.0625 c -3.75,1.875 -7.5,3.75 -11.4375,5.4375 z"
         style="fill:#000000;stroke:none" />
      <path
         inkscape:connector-curvature="0"
         id="path68-3"
         d="m 777.71875,728.65625 v 55.6875 c 3.9375,-1.5 7.6875,-2.8125 11.4375,-4.5 v -65.625 c -3.5625,4.875 -7.3125,9.75 -11.4375,14.4375 z"
         style="fill:#000000;stroke:none" />
      <path
         inkscape:connector-curvature="0"
         id="path70-8"
         d="m 799.84375,775.53125 c 3.75,-1.5 7.5,-3.375 11.4375,-5.0625 v -96.75 c -3.1875,8.25 -7.125,16.125 -11.4375,24 z"
         style="fill:#000000;stroke:none" />
      <path
         inkscape:connector-curvature="0"
         id="path72-8"
         d="m 468.90625,770.46875 c 3.75,1.6875 7.6875,3.5625 11.4375,5.0625 v -77.8125 c -4.5,-7.6875 -8.25,-15.75 -11.4375,-24 z"
         style="fill:#000000;stroke:none" />
      <path
         inkscape:connector-curvature="0"
         id="path74-3"
         d="m 490.84375,714.21875 v 65.625 c 3.75,1.6875 7.6875,3 11.4375,4.5 v -55.6875 c -4.125,-4.6875 -7.875,-9.5625 -11.4375,-14.4375 z"
         style="fill:#000000;stroke:none" />
      <path
         inkscape:connector-curvature="0"
         id="path76-1"
         d="m 524.40625,750.59375 c -3.75,-3.375 -7.6875,-6.75 -11.4375,-10.5 v 47.625 c 3.9375,1.3125 7.6875,2.4375 11.4375,3.5625 z"
         style="fill:#000000;stroke:none" />
      <path
         inkscape:connector-curvature="0"
         id="path78-8"
         d="m 557.21875,799.15625 c 3.75,0.75 7.5,1.3125 11.25,2.0625 v -22.6875 c -3.75,-1.6875 -7.6875,-3.5625 -11.25,-5.4375 z"
         style="fill:#000000;stroke:none" />
      <path
         inkscape:connector-curvature="0"
         id="path80-9"
         d="m 546.53125,796.90625 v -30 c -3.9375,-2.4375 -7.6875,-5.0625 -11.4375,-7.875 v 35.0625 c 3.75,0.9375 7.5,1.875 11.4375,2.8125 z"
         style="fill:#000000;stroke:none" />
      <path
         inkscape:connector-curvature="0"
         id="path82-6"
         d="m 623.40625,807.03125 c 3.75,0 7.5,0.1875 11.4375,0.1875 v -14.4375 c -3.9375,0 -7.6875,-0.375 -11.4375,-0.5625 z"
         style="fill:#000000;stroke:none" />
      <path
         inkscape:connector-curvature="0"
         id="path84-4"
         d="m 612.71875,806.28125 v -15.1875 c -3.9375,-0.75 -7.6875,-1.3125 -11.4375,-2.0625 v 16.3125 c 3.75,0.5625 7.5,0.75 11.4375,0.9375 z"
         style="fill:#000000;stroke:none" />
      <path
         inkscape:connector-curvature="0"
         id="path86-3"
         d="m 590.59375,804.21875 v -17.8125 c -3.75,-1.125 -7.6875,-2.4375 -11.4375,-3.75 v 20.25 c 3.75,0.375 7.6875,1.125 11.4375,1.3125 z"
         style="fill:#000000;stroke:none" />
      <path
         inkscape:connector-curvature="0"
         id="path88-3"
         d="m 347.96875,523.34375 c -3.9375,4.125 -7.6875,8.625 -11.4375,12.75 v 131.625 c 3.75,4.3125 7.5,8.625 11.4375,12.75 z"
         style="fill:#000000;stroke:none" />
      <path
         inkscape:connector-curvature="0"
         id="path90-3"
         d="m 325.84375,549.03125 c -3.9375,4.875 -7.6875,9.9375 -11.4375,15 v 75.75 c 3.75,5.0625 7.5,10.125 11.4375,15 z"
         style="fill:#000000;stroke:none" />
      <path
         inkscape:connector-curvature="0"
         id="path92-8"
         d="m 303.90625,624.96875 v -45.9375 c -5.25,7.5 -10.125,15 -15,22.875 4.875,7.875 9.75,15.5625 15,23.0625 z"
         style="fill:#000000;stroke:none" />
      <path
         inkscape:connector-curvature="0"
         id="path96-6"
         d="m 655.28125,353.84375 6.5625,16.3125 h 64.5 l -52.5,-109.125 h -77.8125 l -52.5,109.125 h 52.125 l 6.5625,-16.3125 z m -44.0625,-21.5625 17.4375,-43.3125 17.625,43.3125 z"
         style="fill:#000000;stroke:none;opacity:0.99" />
      <path
         inkscape:connector-curvature="0"
         id="path98-0"
         d="m 723.53125,475.90625 v -24 h -166.875 v 24 h 56.0625 v 88.5 h 54.5625 v -88.5 z"
         style="fill:#000000;stroke:none" />
      <path
         inkscape:connector-curvature="0"
         id="path100-4"
         d="m 732.34375,644.09375 h -47.0625 l -39.5625,87.1875 -39.375,-87.1875 h -64.5 l 53.625,118.125 h 78.1875 z"
         style="fill:#000000;stroke:none" />
    </g>
    <path
       style="opacity:0.4;vector-effect:non-scaling-stroke;fill:#ff0000;stroke:#00ff00;stroke-width:0.0999999;stroke-miterlimit:4;stroke-dasharray:none;-inkscape-stroke:hairline;stop-color:#000000"
       d="M 640,667 987.71875,417.78125"
       id="path1639" />
    <path
       style="display:inline;opacity:0.4;vector-effect:non-scaling-stroke;fill:none;stroke:#00ff00;stroke-width:0.0999999;stroke-miterlimit:4;stroke-dasharray:none;-inkscape-stroke:hairline;filter:url(#filter4620);stop-color:#000000"
       d="M 865,644.60937 1212.7188,395.39062"
       id="path1639-3"
       transform="matrix(-1,0,0,1,1505,22.39063)" />
  </g>
  <g
     inkscape:groupmode="layer"
     id="layer1"
     inkscape:label="ellipses"
     sodipodi:insensitive="true"
     style="display:none">
    <ellipse
       style="display:inline;opacity:0.4;fill:#ff0000;stroke-width:9.99996;-inkscape-stroke:none;filter:url(#filter4620-3);stop-color:#000000"
       id="path1498"
       cx="296.03827"
       cy="667"
       rx="418"
       ry="451" />
    <ellipse
       style="display:inline;opacity:0.4;fill:#ff0000;stroke-width:9.99996;-inkscape-stroke:none;filter:url(#filter4620-3);stop-color:#000000"
       id="path1498-3"
       cx="296.03827"
       cy="169"
       rx="418"
       ry="451" />
  </g>
</svg>
